<svg viewBox="0 0 900 600" width="900" height="600" xmlns="http://www.w3.org/2000/svg" xmlns:xlink="http://www.w3.org/1999/xlink" version="1.1">
<g transform="translate(900, 600)">
<path d="M-405.6 0C-402.6 -55.8 -399.6 -111.5 -374.7 -155.2C-349.9 -198.9 -303.3 -230.5 -263 -263C-222.8 -295.6 -189 -329 -146.2 -352.9C-103.4 -376.8 -51.7 -391.2 0 -405.6L0 0Z" fill="#f1f4f8"></path>
</g>
<path d="M405.6 0C404.7 57 403.8 114 374.7 155.2C345.7 196.5 288.6 222.1 244 244C199.3 265.9 167.2 284.1 128.6 310.4C90 336.8 45 371.2 0 405.6L0 0Z" fill="#f1f4f8"></path>
</svg>